<?xml version="1.0" encoding="utf-8"?>
<!-- Generator: Adobe Illustrator 26.0.2, SVG Export Plug-In . SVG Version: 6.00 Build 0)  -->
<svg version="1.1" id="Layer_1" xmlns="http://www.w3.org/2000/svg" xmlns:xlink="http://www.w3.org/1999/xlink" x="0px" y="0px"
	 viewBox="0 0 32 32" style="enable-background:new 0 0 32 32;" xml:space="preserve">
<style type="text/css">
	.st0{fill:#011C44;}
</style>
<path class="st0" d="M20.8,8.1h2.7c0.4,0,0.7-0.3,0.7-0.7V2.9c0-0.3-0.2-0.6-0.6-0.7v0C22.3,2.1,21,2,19.7,2c0,0-0.1,0-0.1,0
	c-4.5,0-7.3,2.9-7.3,7.5v3.1H8.5c-0.4,0-0.7,0.3-0.7,0.7v5.1c0,0.4,0.3,0.7,0.7,0.7h3.8v10.3c0,0.4,0.3,0.7,0.7,0.7h5.3
	c0.4,0,0.7-0.3,0.7-0.7V19h3.8c0.3,0,0.6-0.2,0.7-0.6l0.7-5.1c0-0.4-0.2-0.7-0.6-0.7c0,0-0.1,0-0.1,0c0,0,0,0,0,0h-4.4V10
	C18.9,8.7,19.2,8.1,20.8,8.1z M21.7,17.3h-4.5v11H14v-11H9.5v-3H14V9.5c0-3.6,2-5.7,5.6-5.7c1.2,0,2.3,0.1,2.9,0.1v2.6l-1.7,0
	c-2.4,0-3.6,1.2-3.6,3.5v4.3h4.9L21.7,17.3z"/>
</svg>
