<?xml version="1.0" encoding="utf-8"?>
<!-- Generator: Adobe Illustrator 26.0.2, SVG Export Plug-In . SVG Version: 6.00 Build 0)  -->
<svg version="1.1" id="Layer_1" xmlns="http://www.w3.org/2000/svg" xmlns:xlink="http://www.w3.org/1999/xlink" x="0px" y="0px"
	 viewBox="0 0 32 32" style="enable-background:new 0 0 32 32;" xml:space="preserve">
<style type="text/css">
	.st0{fill:#011C44;}
</style>
<path class="st0" d="M16,9.4c-3.6,0-6.6,2.9-6.6,6.6s2.9,6.6,6.6,6.6c0,0,0,0,0,0c3.6,0,6.5-3,6.5-6.7C22.4,12.4,19.6,9.5,16,9.4
	L16,9.4z M16,20.9c-2.7,0-4.9-2.2-4.9-4.9s2.2-4.9,4.9-4.9s4.9,2.2,4.9,4.9C20.8,18.7,18.7,20.8,16,20.9z M22.3,2H9.7
	C5.5,2,2,5.5,2,9.7v12.6C2,26.5,5.5,30,9.7,30l0,0h12.6c4.3,0,7.7-3.5,7.7-7.7c0,0,0,0,0,0V9.7C30,5.5,26.5,2,22.3,2
	C22.3,2,22.3,2,22.3,2z M28.3,22.3c0,3.3-2.7,6-6,6H9.7c-3.3,0-6-2.7-6-6V9.7c0-3.3,2.7-6,6-6h12.6c3.3,0,6,2.7,6,6V22.3z M24.9,8.6
	c0,0.8-0.6,1.4-1.4,1.4C22.6,10,22,9.4,22,8.6s0.6-1.4,1.4-1.4C24.2,7.1,24.9,7.8,24.9,8.6z"/>
</svg>
