<?xml version="1.0" encoding="utf-8"?>
<!-- Generator: Adobe Illustrator 26.0.2, SVG Export Plug-In . SVG Version: 6.00 Build 0)  -->
<svg version="1.1" id="Layer_1" xmlns="http://www.w3.org/2000/svg" xmlns:xlink="http://www.w3.org/1999/xlink" x="0px" y="0px"
	 viewBox="0 0 32 32" style="enable-background:new 0 0 32 32;" xml:space="preserve">
<style type="text/css">
	.st0{fill:#011C44;}
</style>
<path class="st0" d="M26.5,22.4l-0.2-0.2c-1.2-1.6-2.3-2.4-3.2-2.5c-0.1,0-0.1,0-0.2,0c-0.7,0-1.4,0.5-2.1,1l-0.8,0.5
	c-0.1,0.1-0.2,0.1-0.3,0.1c-0.2,0.1-0.5,0.1-0.8,0.1c-0.5,0-1.2-0.1-1.6-0.5c-0.8-0.8-2.1-2.2-3.1-3.4c-0.9-1.3-2-2.9-2.5-3.9
	c-0.5-0.8-0.1-2,0.2-2.5c0-0.1,0.1-0.2,0.2-0.3l0.7-0.7c0,0,0,0,0,0c0,0,0,0,0,0c0.7-0.6,1.4-1.2,1.5-1.9c0.1-0.9-0.4-2.1-1.7-3.7
	l-0.2-0.2C11.8,3.4,10.8,2,9.3,2C9.2,2,9,2,8.9,2C8.3,2.1,7.7,2.4,7.1,2.7c0,0-0.9,0.7-0.9,0.7c0,0-0.2,0.2-0.3,0.3
	c-0.9,0.8-2.7,3-1.4,7.2c0.8,2.7,2.5,5.9,4.9,9.1l1.3,1.7c2.6,3.1,5.2,5.5,7.6,7c1.6,1,3,1.3,4.1,1.3c0,0,0,0,0,0
	c1.1,0,2.2-0.3,3.1-0.9l0.3-0.2c0,0,0.9-0.7,0.9-0.7c0.5-0.5,0.9-1,1.1-1.6C28.5,24.9,27.3,23.4,26.5,22.4z M11.8,8.9l-1,0.9
	c0,0-0.3,0.3-0.4,0.5c-0.4,0.8-1.1,2.6-0.2,4.2c0.6,1.1,1.7,2.8,2.7,4.1c1.1,1.3,2.4,2.8,3.3,3.6c0.7,0.6,1.7,1,2.8,1
	c0.4,0,0.9-0.1,1.3-0.2c0.2,0,0.3-0.1,0.5-0.2l1-0.6L22,22c0.3-0.2,0.8-0.6,1-0.6c0,0,0.6,0.1,2,1.9l0.2,0.2
	c0.5,0.7,1.3,1.7,1.1,2.3c-0.2,0.4-0.4,0.7-0.7,1l-1.1,0.8c-0.4,0.3-1.2,0.6-2.2,0.6c-1,0-2.1-0.4-3.3-1.1c-2.3-1.4-4.9-3.8-7.4-7
	l-0.7-0.9c-2.4-3.2-4.1-6.3-4.8-9C5.1,7.3,6.4,5.8,7,5c0.3-0.4,1-0.8,1-0.8c0.4-0.3,0.7-0.4,1.2-0.4c0,0,0.1,0,0.1,0
	c0.6,0,1.4,1,1.9,1.6l0.2,0.2C12.7,7.4,12.6,8,12.6,8C12.6,8.2,12,8.6,11.8,8.9z"/>
</svg>
